<?xml version="1.0" encoding="UTF-8" standalone="no"?>
<!DOCTYPE svg PUBLIC "-//W3C//DTD SVG 1.1//EN" "http://www.w3.org/Graphics/SVG/1.1/DTD/svg11.dtd">
<svg width="100%" height="100%" viewBox="0 0 1000 1000" version="1.1" xmlns="http://www.w3.org/2000/svg" xmlns:xlink="http://www.w3.org/1999/xlink" xml:space="preserve" xmlns:serif="http://www.serif.com/" style="fill-rule:evenodd;clip-rule:evenodd;stroke-linecap:round;stroke-linejoin:round;stroke-miterlimit:1.5;">
    <g transform="matrix(1,0,0,1,-1200,0)">
        <g id="LOGO-V3" serif:id="LOGO V3" transform="matrix(0.54821,0,0,0.54821,1113.06,-425.641)">
            <rect x="158.587" y="776.419" width="1824.12" height="1824.12" style="fill:none;"/>
            <clipPath id="_clip1">
                <rect x="158.587" y="776.419" width="1824.12" height="1824.12"/>
            </clipPath>
            <g clip-path="url(#_clip1)">
                <g id="BC" transform="matrix(1.82412,0,0,1.82412,-2030.35,-2213.99)">
                    <rect x="1200" y="1640" width="1000" height="1000" style="fill:rgb(0,227,133);"/>
                </g>
                <g id="ICON" transform="matrix(1.82412,0,0,1.82412,-2030.35,-2213.99)">
                    <g transform="matrix(1,0,0,1,1200.39,1644.37)">
                        <path d="M455.636,406.714C457.317,410.138 460.798,412.307 464.612,412.307C468.426,412.307 471.908,410.138 473.589,406.714C495.935,361.195 554.32,242.262 583.095,183.646C587.369,174.94 595.064,168.398 604.344,165.58C613.624,162.762 623.657,163.92 632.05,168.78C644.286,175.864 658.009,183.809 669.478,190.448C684.052,198.886 690.551,216.507 684.946,232.387C667.398,282.107 630.547,386.519 613.55,434.678C607.609,451.511 599.882,467.659 590.502,482.846C572.786,511.529 544.687,557.022 544.687,557.022C544.687,557.022 570.936,514.524 588.689,485.781C592.897,478.967 599.655,474.119 607.458,472.316C615.261,470.513 623.461,471.905 630.233,476.181C666.437,499.047 732.205,540.585 768.614,563.58C775.449,567.897 780.253,574.791 781.937,582.698C783.62,590.606 782.04,598.858 777.555,605.585C771.075,615.307 764.172,625.661 759.651,632.442C756.366,637.37 754.612,643.161 754.612,649.083L754.612,701.626C754.612,726.331 745.468,750.16 728.942,768.523C712.947,786.295 692.929,808.537 679.509,823.448C670.027,833.984 656.519,840 642.344,840L366.91,840C349.897,840 334.051,831.349 324.851,817.038C298.198,775.577 242.479,688.903 217.367,649.841C209.658,637.848 209.993,622.378 218.215,610.73C242.421,576.438 292.468,505.538 314.182,474.777C320.725,465.508 322.369,453.643 318.593,442.944C303.311,399.647 262.912,285.183 244.278,232.387C238.674,216.507 245.173,198.886 259.747,190.448C271.216,183.809 284.939,175.864 297.175,168.78C305.568,163.92 315.601,162.762 324.881,165.58C334.161,168.398 341.856,174.94 346.13,183.646C376.936,246.4 440.068,375.002 440.068,375.003C444.664,384.364 454.184,390.296 464.612,390.296C475.041,390.296 484.561,384.364 489.156,375.003C489.157,375.002 489.157,375.002 489.157,375.002C489.157,375.002 489.157,375.002 489.156,375.003C484.561,384.364 475.041,390.296 464.612,390.296C454.184,390.296 444.664,384.364 440.068,375.003C440.068,375.002 440.068,375.002 440.068,375.002C440.068,375.002 448.626,392.436 455.636,406.714Z" style="fill:white;stroke:rgb(0,36,21);stroke-width:40px;"/>
                    </g>
                    <g transform="matrix(1,0,0,1,1200,1639.37)">
                        <path d="M589.076,490.781C593.285,483.967 600.043,479.119 607.846,477.316C615.649,475.513 623.849,476.905 630.62,481.181C666.824,504.047 732.592,545.585 769.001,568.58C775.837,572.897 780.641,579.791 782.324,587.698C784.007,595.606 782.428,603.858 777.943,610.585C759.371,638.443 729.989,682.516 712.499,708.751C704.198,721.203 687.99,725.633 674.509,719.133C635.406,700.281 557.649,662.793 520.58,644.922C507.035,638.392 492.19,635 477.153,635C437.469,635 360,635 360,635L477.691,635C491.558,635 504.436,627.818 511.723,616.02C515.472,609.95 519.744,603.034 523.95,596.224C529.27,587.611 530.6,577.117 527.597,567.45C524.595,557.783 517.554,549.889 508.291,545.806C458.584,523.892 372.334,485.868 338.849,471.105C330.012,467.209 323.177,459.835 319.963,450.728C313.503,432.426 303.125,403.021 303.125,403.021C303.125,403.021 312.505,429.597 318.98,447.944C322.756,458.643 321.112,470.508 314.569,479.777C303.802,495.03 288.564,516.618 288.564,516.618C288.564,516.618 298.847,502.05 308.488,488.393C318.093,474.784 335.959,469.831 351.2,476.551C392.988,494.973 474.367,530.85 517.191,549.729C533.175,556.776 551.908,550.958 561.088,536.096C569.754,522.065 580.424,504.789 589.076,490.781ZM545.075,562.022C545.075,562.022 530.166,586.16 517.497,606.672C513.031,613.902 511.841,622.688 514.224,630.846C516.606,639.004 522.337,645.769 529.993,649.46C544.341,656.378 561.275,664.541 574.702,671.015C588.255,677.549 604.551,673.034 612.808,660.457C631.644,631.767 664.553,581.644 684.474,551.303C688.891,544.575 690.419,536.354 688.716,528.488C687.013,520.622 682.22,513.771 675.415,509.473C660.853,500.276 642.792,488.869 628.608,479.91C614.798,471.188 608.857,454.073 614.293,438.67C617.123,430.652 619.5,423.916 619.5,423.916C619.5,423.916 617.123,430.652 614.293,438.67C608.857,454.073 614.798,471.188 628.608,479.91C665.404,503.15 732.259,545.374 732.259,545.374C732.259,545.374 729.747,543.788 726.153,541.517C712.319,532.78 694.035,536.74 685.055,550.417C666.642,578.463 636.607,624.208 617.172,653.811C612.428,661.036 611.031,669.957 613.339,678.286C615.647,686.616 621.435,693.546 629.221,697.299C639.555,702.282 648.503,706.595 648.503,706.595" style="fill:none;stroke:rgb(0,36,21);stroke-width:40px;"/>
                    </g>
                </g>
            </g>
        </g>
    </g>
</svg>
